<?xml version="1.0" encoding="UTF-8"?>
<svg xmlns="http://www.w3.org/2000/svg" xmlns:xlink="http://www.w3.org/1999/xlink" width="32px" height="32px" viewBox="0 0 32 32" version="1.1">
<g id="surface1">
<path style=" stroke:none;fill-rule:nonzero;fill:rgb(97.647059%,36.078432%,13.333334%);fill-opacity:1;" d="M 25.84375 3.179688 C 26.0625 3.367188 26.28125 3.558594 26.5 3.75 C 26.605469 3.835938 26.707031 3.925781 26.8125 4.015625 C 28.257812 5.257812 29.351562 6.703125 30.25 8.375 C 30.289062 8.449219 30.328125 8.523438 30.371094 8.597656 C 31.089844 9.949219 31.511719 11.390625 31.875 12.875 C 31.898438 12.96875 31.921875 13.0625 31.945312 13.15625 C 32.019531 13.625 32.027344 14.089844 32.035156 14.5625 C 32.035156 14.664062 32.039062 14.769531 32.039062 14.875 C 32.09375 19.183594 32.09375 19.183594 31.375 21.125 C 31.320312 21.277344 31.320312 21.277344 31.261719 21.433594 C 29.738281 25.558594 26.722656 28.863281 22.75 30.75 C 22.058594 31.050781 21.351562 31.296875 20.625 31.5 C 20.476562 31.542969 20.328125 31.585938 20.171875 31.628906 C 18.785156 32.003906 17.457031 32.085938 16.023438 32.070312 C 15.914062 32.070312 15.804688 32.070312 15.691406 32.070312 C 14.054688 32.058594 12.542969 31.957031 11 31.375 C 10.835938 31.316406 10.667969 31.257812 10.5 31.203125 C 6.449219 29.730469 3.214844 26.746094 1.375 22.863281 C 0.570312 21.105469 -0.00390625 19.230469 -0.0351562 17.285156 C -0.0351562 17.148438 -0.0351562 17.148438 -0.0390625 17.007812 C -0.0664062 14.96875 -0.0351562 13.078125 0.625 11.125 C 0.652344 11.035156 0.679688 10.949219 0.710938 10.855469 C 1.832031 7.339844 4.273438 4.34375 7.375 2.375 C 7.511719 2.285156 7.648438 2.199219 7.789062 2.109375 C 8.964844 1.394531 10.191406 0.910156 11.5 0.5 C 11.589844 0.472656 11.675781 0.441406 11.765625 0.414062 C 16.394531 -1.007812 22.097656 0.167969 25.84375 3.179688 Z M 25.84375 3.179688 "/>
<path style=" stroke:none;fill-rule:nonzero;fill:rgb(98.823529%,98.039216%,97.254902%);fill-opacity:1;" d="M 10.851562 8.445312 C 11.230469 8.695312 11.472656 9.03125 11.742188 9.390625 C 11.863281 9.550781 11.988281 9.710938 12.109375 9.867188 C 12.171875 9.953125 12.238281 10.035156 12.300781 10.121094 C 12.632812 10.542969 12.972656 10.960938 13.3125 11.375 C 14.183594 12.445312 15.050781 13.519531 15.875 14.625 C 16.417969 14.433594 16.691406 14.007812 17.023438 13.5625 C 17.605469 12.796875 18.21875 12.078125 18.875 11.375 C 19.289062 11.570312 19.5625 11.789062 19.875 12.125 C 19.703125 12.492188 19.507812 12.792969 19.257812 13.109375 C 19.179688 13.207031 19.101562 13.304688 19.023438 13.40625 C 18.933594 13.519531 18.84375 13.632812 18.75 13.75 C 18.585938 13.957031 18.421875 14.164062 18.261719 14.371094 C 18.144531 14.519531 18.027344 14.667969 17.910156 14.816406 C 17.609375 15.199219 17.308594 15.585938 17.015625 15.972656 C 16.960938 16.050781 16.902344 16.125 16.84375 16.203125 C 16.738281 16.347656 16.628906 16.492188 16.523438 16.636719 C 16.394531 16.804688 16.261719 16.964844 16.125 17.125 C 16.042969 17.125 15.960938 17.125 15.875 17.125 C 15.660156 16.875 15.457031 16.621094 15.257812 16.359375 C 15.132812 16.195312 15.007812 16.035156 14.882812 15.875 C 14.820312 15.789062 14.753906 15.707031 14.6875 15.621094 C 14.40625 15.25 14.117188 14.882812 13.828125 14.515625 C 13.746094 14.410156 13.746094 14.410156 13.660156 14.300781 C 13.140625 13.640625 12.609375 12.984375 12.074219 12.335938 C 11.617188 11.777344 11.179688 11.207031 10.75 10.625 C 9.800781 11.0625 9.386719 12.164062 9.015625 13.09375 C 8.816406 13.648438 8.65625 14.15625 8.625 14.75 C 8.617188 14.855469 8.613281 14.964844 8.605469 15.074219 C 8.535156 17.199219 9.234375 19.238281 10.664062 20.820312 C 12.019531 22.234375 13.78125 23.011719 15.726562 23.148438 C 17.734375 23.183594 19.917969 22.566406 21.398438 21.140625 C 22.011719 20.421875 22.601562 19.609375 23 18.75 C 22.753906 18.707031 22.503906 18.667969 22.25 18.625 C 22.21875 18.71875 22.183594 18.808594 22.148438 18.902344 C 21.90625 19.46875 21.519531 19.90625 21.125 20.375 C 21.0625 20.453125 21 20.53125 20.933594 20.609375 C 20.003906 21.660156 18.289062 22.4375 16.894531 22.523438 C 16.597656 22.523438 16.300781 22.515625 16 22.5 C 16.035156 22.082031 16.121094 21.878906 16.375 21.539062 C 16.792969 21.214844 17.046875 21.171875 17.550781 21.082031 C 19.175781 20.675781 20.28125 19.640625 21.125 18.25 C 21.289062 17.921875 21.453125 17.589844 21.625 17.25 C 22.699219 17.25 23.769531 17.25 24.875 17.25 C 24.542969 18.910156 24.054688 20.058594 23 21.375 C 22.898438 21.507812 22.898438 21.507812 22.796875 21.644531 C 21.507812 23.265625 19.40625 24.21875 17.40625 24.585938 C 17.230469 24.601562 17.050781 24.613281 16.875 24.625 C 16.75 24.632812 16.625 24.640625 16.5 24.648438 C 14.066406 24.734375 11.902344 23.898438 10.070312 22.308594 C 8.265625 20.570312 7.144531 18.402344 7.078125 15.882812 C 7.070312 13.152344 7.933594 10.949219 9.859375 8.984375 C 10.515625 8.339844 10.515625 8.339844 10.851562 8.445312 Z M 10.851562 8.445312 "/>
<path style=" stroke:none;fill-rule:nonzero;fill:rgb(98.823529%,97.647059%,96.862745%);fill-opacity:1;" d="M 21.25 8.375 C 21.984375 8.433594 22.527344 9.121094 23 9.625 C 23.996094 10.890625 24.675781 12.269531 24.875 13.875 C 23.800781 13.875 22.730469 13.875 21.625 13.875 C 21.503906 13.632812 21.382812 13.390625 21.257812 13.140625 C 20.523438 11.746094 19.527344 10.660156 18.015625 10.121094 C 16.621094 9.726562 15.453125 9.789062 14.089844 10.265625 C 13.75 10.375 13.75 10.375 13.375 10.375 C 12.75 9.707031 12.75 9.707031 12.75 9.375 C 12.988281 9.273438 13.222656 9.171875 13.460938 9.070312 C 13.660156 8.984375 13.660156 8.984375 13.859375 8.898438 C 15.457031 8.289062 17.574219 8.464844 19.125 9.125 C 20.582031 9.867188 21.601562 10.941406 22.375 12.375 C 22.375 12.457031 22.375 12.539062 22.375 12.625 C 22.621094 12.625 22.871094 12.625 23.125 12.625 C 22.539062 11.203125 21.757812 10.277344 20.625 9.25 C 20.816406 8.921875 20.980469 8.644531 21.25 8.375 Z M 21.25 8.375 "/>
<path style=" stroke:none;fill-rule:nonzero;fill:rgb(95.294118%,38.82353%,17.254902%);fill-opacity:1;" d="M 22.742188 18.539062 C 22.933594 18.582031 22.933594 18.582031 23.125 18.625 C 22.273438 20.597656 20.890625 21.902344 18.9375 22.761719 C 18.625 22.875 18.328125 22.945312 18 23 C 17.917969 22.875 17.835938 22.753906 17.75 22.625 C 17.492188 22.476562 17.492188 22.476562 17.25 22.375 C 17.371094 22.339844 17.492188 22.300781 17.617188 22.265625 C 19.433594 21.699219 20.839844 20.949219 21.820312 19.25 C 22.1875 18.636719 22.1875 18.636719 22.742188 18.539062 Z M 22.742188 18.539062 "/>
<path style=" stroke:none;fill-rule:nonzero;fill:rgb(95.294118%,38.431373%,16.862746%);fill-opacity:1;" d="M 21.5 10.125 C 22.285156 10.707031 22.738281 11.347656 23.125 12.25 C 23.125 12.375 23.125 12.496094 23.125 12.625 C 22.796875 12.703125 22.796875 12.703125 22.375 12.625 C 22.148438 12.335938 21.980469 12.035156 21.808594 11.710938 C 21.574219 11.277344 21.292969 10.894531 21 10.5 C 21.164062 10.5 21.328125 10.5 21.5 10.5 C 21.5 10.375 21.5 10.253906 21.5 10.125 Z M 21.5 10.125 "/>
<path style=" stroke:none;fill-rule:nonzero;fill:rgb(93.333334%,42.352942%,21.960784%);fill-opacity:1;" d="M 23 21.25 C 23.042969 21.375 23.082031 21.496094 23.125 21.625 C 22.835938 21.914062 22.546875 22.203125 22.25 22.5 C 22.125 22.457031 22.003906 22.417969 21.875 22.375 C 21.96875 22.304688 22.0625 22.234375 22.15625 22.164062 C 22.488281 21.882812 22.738281 21.597656 23 21.25 Z M 23 21.25 "/>
<path style=" stroke:none;fill-rule:nonzero;fill:rgb(94.901961%,39.607844%,18.82353%);fill-opacity:1;" d="M 12.75 9.625 C 12.875 9.75 12.996094 9.871094 13.125 10 C 12.878906 10.125 12.628906 10.246094 12.375 10.375 C 12.292969 10.25 12.210938 10.128906 12.125 10 C 12.332031 9.957031 12.539062 9.917969 12.75 9.875 C 12.75 9.792969 12.75 9.710938 12.75 9.625 Z M 12.75 9.625 "/>
<path style=" stroke:none;fill-rule:nonzero;fill:rgb(92.941177%,41.568628%,20.784314%);fill-opacity:1;" d="M 17.875 14.75 C 17.917969 14.832031 17.957031 14.914062 18 15 C 17.902344 15.214844 17.902344 15.214844 17.757812 15.453125 C 17.671875 15.59375 17.585938 15.730469 17.5 15.875 C 17.375 15.875 17.253906 15.875 17.125 15.875 C 17.316406 15.445312 17.574219 15.109375 17.875 14.75 Z M 17.875 14.75 "/>
</g>
</svg>
